<?xml version="1.0" encoding="UTF-8"?>
<svg id="Layer_1" data-name="Layer 1" xmlns="http://www.w3.org/2000/svg" viewBox="0 0 864 180">
  <defs>
    <style>
      .cls-1 {
        fill: #1c65b1;
      }

      .cls-1, .cls-2 {
        stroke-width: 0px;
      }

      .cls-2 {
        fill: #ffffff;
      }

      .cls-3 {
        fill: none;
        stroke: #1c65b1;
        stroke-miterlimit: 10;
        stroke-width: 9px;
      }
    </style>
  </defs>
  <g>
    <path class="cls-2" d="M136.973,113.303V16.01h58.793v10.563h-47.118v32.663h43.365v10.562h-43.365v43.504h-11.675Z"/>
    <path class="cls-2" d="M243.854,115.249c-6.857,0-12.904-1.438-18.138-4.31-5.236-2.87-9.312-6.925-12.231-12.161-2.918-5.233-4.378-11.419-4.378-18.555v-1.808c0-7.04,1.46-13.203,4.378-18.485,2.919-5.281,6.995-9.358,12.231-12.231,5.233-2.871,11.28-4.309,18.138-4.309s12.902,1.438,18.139,4.309c5.233,2.873,9.312,6.95,12.23,12.231,2.919,5.282,4.379,11.445,4.379,18.485v1.808c0,7.136-1.46,13.321-4.379,18.555-2.918,5.236-6.997,9.291-12.23,12.161-5.236,2.871-11.282,4.31-18.139,4.31ZM243.854,105.38c7.228,0,12.996-2.293,17.305-6.88,4.309-4.586,6.463-10.771,6.463-18.555v-1.251c0-7.783-2.154-13.969-6.463-18.555-4.309-4.587-10.077-6.88-17.305-6.88-7.136,0-12.88,2.293-17.234,6.88-4.356,4.586-6.532,10.771-6.532,18.555v1.251c0,7.783,2.176,13.969,6.532,18.555,4.354,4.587,10.099,6.88,17.234,6.88Z"/>
    <path class="cls-2" d="M298.338,113.303V45.337h10.702v8.339h1.946c1.203-2.964,3.058-5.143,5.56-6.532,2.501-1.39,5.789-2.085,9.868-2.085h8.062v10.007h-8.757c-4.912,0-8.874,1.368-11.884,4.1-3.012,2.734-4.517,6.974-4.517,12.718v41.419h-10.98Z"/>
    <path class="cls-2" d="M381.87,115.249c-6.858,0-12.881-1.46-18.068-4.379-5.19-2.919-9.222-7.019-12.093-12.3-2.873-5.282-4.309-11.397-4.309-18.347v-1.668c0-7.041,1.436-13.204,4.309-18.486,2.871-5.281,6.856-9.381,11.953-12.3,5.095-2.918,10.933-4.378,17.513-4.378,6.394,0,12.045,1.368,16.957,4.1,4.91,2.734,8.756,6.649,11.536,11.745,2.779,5.097,4.17,11.073,4.17,17.929v5.004h-55.457c.278,7.321,2.641,13.044,7.088,17.165,4.448,4.124,10.008,6.186,16.679,6.186,5.838,0,10.331-1.343,13.482-4.031,3.149-2.687,5.56-5.883,7.228-9.59l9.451,4.587c-1.39,2.873-3.314,5.746-5.769,8.617-2.456,2.873-5.652,5.281-9.59,7.228-3.939,1.945-8.965,2.919-15.08,2.919ZM358.52,73.135h44.199c-.372-6.3-2.526-11.21-6.464-14.732-3.939-3.521-8.965-5.282-15.08-5.282-6.209,0-11.306,1.762-15.289,5.282-3.984,3.522-6.44,8.433-7.366,14.732Z"/>
    <path class="cls-2" d="M460.398,115.249c-8.433,0-15.545-1.946-21.335-5.838-5.792-3.892-9.29-10.053-10.493-18.485l10.424-2.363c.74,4.448,2.131,7.946,4.17,10.494,2.037,2.549,4.562,4.356,7.574,5.42,3.011,1.066,6.231,1.599,9.66,1.599,5.095,0,9.126-1.019,12.092-3.058,2.965-2.037,4.448-4.771,4.448-8.2,0-3.521-1.414-5.998-4.239-7.437-2.828-1.436-6.695-2.616-11.605-3.544l-5.699-.973c-4.356-.741-8.339-1.898-11.953-3.475-3.613-1.575-6.486-3.705-8.617-6.394-2.133-2.687-3.196-6.068-3.196-10.146,0-6.115,2.362-10.887,7.088-14.316,4.726-3.427,10.98-5.143,18.764-5.143,7.69,0,13.921,1.737,18.694,5.212,4.771,3.475,7.853,8.364,9.243,14.664l-10.286,2.641c-.833-4.91-2.827-8.361-5.976-10.354-3.151-1.992-7.043-2.988-11.676-2.988s-8.294.858-10.979,2.571c-2.689,1.716-4.031,4.239-4.031,7.575,0,3.244,1.272,5.629,3.822,7.157,2.548,1.529,5.953,2.665,10.216,3.405l5.698.974c4.817.834,9.149,1.97,12.996,3.405,3.844,1.438,6.901,3.498,9.173,6.185,2.27,2.688,3.405,6.209,3.405,10.563,0,6.671-2.48,11.813-7.436,15.428-4.958,3.613-11.605,5.421-19.945,5.421Z"/>
    <path class="cls-2" d="M531.281,113.303c-3.892,0-6.88-1.064-8.964-3.196-2.085-2.131-3.128-5.05-3.128-8.757v-46.423h-20.432v-9.59h20.432v-24.184h10.98v24.184h22.238v9.59h-22.238v44.755c0,2.78,1.342,4.17,4.03,4.17h15.15v9.451h-18.069Z"/>
    <path class="cls-1" d="M565.056,113.303v-16.123h12.787V32.133h-12.787v-16.123h50.036c5.929,0,11.096.997,15.497,2.988,4.4,1.994,7.829,4.819,10.285,8.479,2.454,3.661,3.684,8.04,3.684,13.134v1.39c0,4.448-.834,8.085-2.502,10.911-1.668,2.827-3.638,5.003-5.907,6.532-2.271,1.529-4.426,2.619-6.463,3.267v2.502c2.037.556,4.261,1.598,6.672,3.127,2.408,1.528,4.469,3.73,6.185,6.602,1.714,2.873,2.571,6.626,2.571,11.259v1.39c0,5.375-1.251,9.985-3.753,13.829-2.501,3.847-5.954,6.789-10.354,8.826-4.402,2.039-9.521,3.058-15.358,3.058h-50.592ZM596.189,56.039h16.956c3.799,0,6.926-.973,9.382-2.919,2.454-1.946,3.684-4.632,3.684-8.061v-1.39c0-3.52-1.205-6.23-3.613-8.131-2.411-1.898-5.56-2.849-9.452-2.849h-16.956v23.35ZM596.189,96.624h17.234c3.983,0,7.204-.973,9.66-2.919,2.454-1.945,3.683-4.726,3.683-8.339v-1.391c0-3.613-1.205-6.394-3.613-8.339-2.411-1.946-5.653-2.919-9.729-2.919h-17.234v23.906Z"/>
    <path class="cls-1" d="M660.679,113.303V16.01h17.513v97.292h-17.513Z"/>
    <path class="cls-1" d="M723.917,114.415c-5.375,0-10.076-1.228-14.107-3.684-4.03-2.454-7.158-5.859-9.382-10.216-2.224-4.354-3.336-9.357-3.336-15.011v-41.141h17.513v39.751c0,5.19,1.273,9.082,3.822,11.675,2.548,2.596,6.186,3.892,10.911,3.892,5.373,0,9.542-1.783,12.509-5.351,2.965-3.566,4.448-8.548,4.448-14.941v-35.025h17.512v68.938h-17.234v-9.034h-2.502c-1.111,2.317-3.196,4.587-6.254,6.811s-7.692,3.336-13.899,3.336Z"/>
    <path class="cls-1" d="M814.677,115.249c-6.858,0-12.904-1.46-18.138-4.379-5.236-2.919-9.312-7.04-12.231-12.37-2.919-5.327-4.378-11.605-4.378-18.833v-1.668c0-7.227,1.436-13.503,4.309-18.833,2.871-5.327,6.901-9.451,12.092-12.37,5.188-2.919,11.211-4.378,18.069-4.378,6.763,0,12.647,1.507,17.651,4.518,5.004,3.012,8.896,7.182,11.675,12.509,2.78,5.329,4.17,11.515,4.17,18.555v5.977h-50.175c.185,4.726,1.945,8.572,5.281,11.536,3.336,2.967,7.412,4.448,12.231,4.448,4.91,0,8.523-1.064,10.841-3.197,2.314-2.13,4.076-4.493,5.281-7.088l14.316,7.505c-1.299,2.411-3.176,5.027-5.629,7.854-2.457,2.827-5.723,5.235-9.799,7.228-4.079,1.991-9.267,2.988-15.567,2.988ZM797.859,70.911h32.245c-.371-3.983-1.97-7.18-4.795-9.591-2.827-2.408-6.511-3.613-11.05-3.613-4.726,0-8.479,1.205-11.258,3.613-2.78,2.411-4.495,5.607-5.143,9.591Z"/>
  </g>
  <g>
    <path class="cls-2" d="M150.009,163.893c-3.028,0-5.736-.538-8.127-1.614-2.391-1.075-4.273-2.698-5.647-4.87-1.375-2.171-2.062-4.891-2.062-8.157v-1.255h4.961v1.255c0,3.466,1.016,6.046,3.048,7.739,2.031,1.693,4.641,2.539,7.828,2.539,3.267,0,5.757-.736,7.471-2.211,1.712-1.474,2.569-3.326,2.569-5.558,0-1.554-.389-2.788-1.165-3.705-.777-.916-1.863-1.663-3.257-2.241-1.396-.577-3.028-1.085-4.9-1.524l-3.107-.776c-2.431-.637-4.583-1.414-6.455-2.331-1.873-.916-3.337-2.121-4.393-3.615s-1.583-3.416-1.583-5.768.587-4.382,1.763-6.095c1.175-1.713,2.828-3.027,4.96-3.944,2.131-.916,4.592-1.375,7.381-1.375,2.828,0,5.368.488,7.619,1.464,2.251.978,4.024,2.411,5.319,4.303,1.294,1.894,1.942,4.273,1.942,7.142v2.511h-4.96v-2.511c0-2.031-.429-3.665-1.285-4.9-.857-1.234-2.032-2.151-3.526-2.749s-3.197-.896-5.109-.896c-2.749,0-4.96.608-6.634,1.823-1.673,1.216-2.51,2.938-2.51,5.169,0,1.475.358,2.67,1.076,3.586.717.917,1.732,1.664,3.048,2.241,1.314.578,2.888,1.086,4.721,1.523l3.107.777c2.43.519,4.611,1.225,6.544,2.121s3.476,2.112,4.632,3.646c1.155,1.534,1.733,3.536,1.733,6.007s-.618,4.622-1.854,6.454c-1.235,1.833-2.979,3.257-5.229,4.272-2.252,1.017-4.892,1.524-7.919,1.524Z"/>
    <path class="cls-2" d="M175.288,129.29c-1.036,0-1.903-.338-2.6-1.016-.697-.677-1.046-1.533-1.046-2.569,0-1.076.349-1.952,1.046-2.63.696-.677,1.563-1.016,2.6-1.016s1.892.339,2.57,1.016c.677.678,1.016,1.554,1.016,2.63,0,1.036-.339,1.893-1.016,2.569-.679.678-1.534,1.016-2.57,1.016ZM172.897,163.056v-29.224h4.722v29.224h-4.722Z"/>
    <path class="cls-2" d="M187.538,163.056v-29.224h4.602v3.646h.837c.558-1.035,1.474-1.991,2.749-2.868,1.274-.876,3.067-1.315,5.379-1.315,2.271,0,4.113.499,5.527,1.494,1.414.997,2.44,2.212,3.078,3.646h.837c.677-1.434,1.703-2.648,3.077-3.646,1.375-.995,3.297-1.494,5.768-1.494,1.951,0,3.665.399,5.14,1.195,1.473.798,2.639,1.942,3.496,3.437.855,1.494,1.284,3.277,1.284,5.349v19.781h-4.721v-19.363c0-1.951-.568-3.495-1.703-4.631-1.136-1.136-2.72-1.703-4.751-1.703-2.151,0-3.915.697-5.289,2.092-1.375,1.395-2.062,3.406-2.062,6.035v17.57h-4.722v-19.363c0-1.951-.567-3.495-1.703-4.631s-2.719-1.703-4.751-1.703c-2.151,0-3.914.697-5.289,2.092-1.374,1.395-2.062,3.406-2.062,6.035v17.57h-4.722Z"/>
    <path class="cls-2" d="M238.933,175.008v-41.176h4.602v4.841h.837c.757-1.474,1.981-2.788,3.676-3.944,1.692-1.155,4.053-1.733,7.081-1.733,2.511,0,4.812.608,6.903,1.823,2.091,1.216,3.765,2.938,5.02,5.169,1.255,2.232,1.883,4.921,1.883,8.068v.776c0,3.108-.618,5.797-1.853,8.068-1.235,2.271-2.898,4.004-4.99,5.199s-4.413,1.793-6.963,1.793c-2.031,0-3.755-.27-5.169-.807-1.415-.538-2.561-1.226-3.437-2.062-.877-.836-1.554-1.692-2.032-2.569h-.836v16.554h-4.722ZM253.873,159.709c3.027,0,5.488-.966,7.381-2.898,1.892-1.932,2.839-4.632,2.839-8.098v-.538c0-3.466-.947-6.165-2.839-8.098-1.893-1.932-4.354-2.898-7.381-2.898-2.988,0-5.448.967-7.38,2.898-1.934,1.933-2.898,4.632-2.898,8.098v.538c0,3.466.965,6.166,2.898,8.098,1.932,1.933,4.392,2.898,7.38,2.898Z"/>
    <path class="cls-2" d="M277.419,163.056v-41.833h4.722v41.833h-4.722Z"/>
    <path class="cls-2" d="M295.587,175.008v-4.184h16.733c1.155,0,1.732-.597,1.732-1.792v-10.638h-.836c-.399.836-1.007,1.664-1.823,2.479-.816.817-1.883,1.475-3.197,1.973-1.314.497-2.969.747-4.96.747-2.112,0-4.055-.459-5.827-1.375s-3.167-2.271-4.183-4.063c-1.017-1.793-1.524-3.983-1.524-6.574v-17.749h4.722v17.391c0,2.869.726,4.96,2.181,6.275,1.454,1.314,3.416,1.972,5.887,1.972,2.788,0,5.08-.916,6.873-2.749,1.792-1.832,2.688-4.562,2.688-8.188v-14.701h4.722v36.036c0,1.594-.448,2.849-1.345,3.766-.896.916-2.202,1.374-3.914,1.374h-17.929Z"/>
    <path class="cls-2" d="M341.841,163.056v-4.482h5.856v-32.868h-5.856v-4.482h20.977c2.43,0,4.592.438,6.484,1.314,1.892.877,3.366,2.102,4.422,3.676s1.584,3.416,1.584,5.527v.479c0,1.952-.379,3.556-1.136,4.811s-1.653,2.231-2.689,2.929-2.052,1.205-3.048,1.523v.837c.996.239,2.032.708,3.108,1.404,1.075.697,1.981,1.684,2.719,2.958.736,1.275,1.105,2.89,1.105,4.841v.598c0,2.271-.548,4.233-1.644,5.887s-2.59,2.908-4.481,3.765c-1.894.857-4.055,1.285-6.484,1.285h-20.917ZM352.718,139.688h9.682c2.39,0,4.303-.606,5.736-1.822,1.435-1.215,2.152-2.818,2.152-4.811v-.598c0-2.032-.708-3.655-2.122-4.871-1.415-1.215-3.337-1.822-5.767-1.822h-9.682v13.924ZM352.718,158.514h9.502c2.63,0,4.641-.617,6.036-1.853,1.394-1.234,2.092-2.908,2.092-5.02v-.538c0-2.111-.698-3.785-2.092-5.021-1.396-1.234-3.406-1.853-6.036-1.853h-9.502v14.283Z"/>
    <path class="cls-2" d="M383.495,163.056v-29.224h4.602v3.586h.837c.518-1.274,1.314-2.211,2.391-2.809,1.075-.598,2.489-.896,4.243-.896h3.466v4.303h-3.765c-2.112,0-3.815.588-5.109,1.763-1.296,1.176-1.942,2.998-1.942,5.469v17.809h-4.722Z"/>
    <path class="cls-2" d="M414.989,163.893c-2.032,0-3.885-.358-5.559-1.076-1.673-.717-2.987-1.753-3.943-3.107-.957-1.354-1.435-3.008-1.435-4.96,0-1.992.478-3.636,1.435-4.931.956-1.294,2.271-2.271,3.943-2.929,1.674-.657,3.546-.985,5.618-.985h9.86v-2.151c0-2.071-.607-3.705-1.822-4.9-1.216-1.195-3.019-1.793-5.409-1.793-2.351,0-4.183.567-5.498,1.703-1.314,1.136-2.211,2.659-2.688,4.571l-4.423-1.434c.479-1.634,1.234-3.117,2.271-4.452,1.035-1.335,2.42-2.41,4.153-3.228,1.732-.816,3.814-1.226,6.245-1.226,3.744,0,6.653.967,8.725,2.898,2.071,1.934,3.107,4.652,3.107,8.158v13.207c0,1.195.558,1.793,1.674,1.793h2.689v4.004h-4.124c-1.314,0-2.37-.368-3.167-1.105-.798-.737-1.195-1.723-1.195-2.958v-.299h-.717c-.439.757-1.026,1.544-1.764,2.36-.737.817-1.743,1.494-3.018,2.032-1.275.537-2.929.807-4.96.807ZM415.526,159.828c2.789,0,5.05-.826,6.783-2.479s2.6-3.975,2.6-6.963v-.657h-9.682c-1.873,0-3.416.409-4.631,1.226-1.216.816-1.823,2.042-1.823,3.675s.628,2.909,1.883,3.825c1.255.917,2.878,1.374,4.87,1.374Z"/>
    <path class="cls-2" d="M440.388,163.056v-29.224h4.602v4.96h.837c.637-1.394,1.723-2.659,3.257-3.795,1.533-1.135,3.795-1.703,6.783-1.703,2.19,0,4.153.459,5.887,1.375,1.733.917,3.117,2.271,4.153,4.063,1.035,1.793,1.554,4.004,1.554,6.634v17.689h-4.721v-17.331c0-2.907-.728-5.02-2.182-6.335-1.455-1.314-3.417-1.972-5.887-1.972-2.829,0-5.13.917-6.902,2.749-1.773,1.833-2.659,4.562-2.659,8.188v14.701h-4.722Z"/>
    <path class="cls-2" d="M490.467,163.893c-2.829,0-5.369-.608-7.619-1.823-2.251-1.215-4.024-2.958-5.319-5.229-1.295-2.271-1.941-4.961-1.941-8.068v-.657c0-3.146.646-5.847,1.941-8.098,1.295-2.25,3.068-3.983,5.319-5.199,2.25-1.215,4.79-1.823,7.619-1.823,2.789,0,5.17.519,7.142,1.555,1.973,1.036,3.526,2.41,4.662,4.123,1.135,1.714,1.861,3.547,2.181,5.498l-4.602.956c-.199-1.435-.668-2.749-1.404-3.944-.737-1.195-1.763-2.151-3.078-2.868-1.314-.717-2.928-1.076-4.84-1.076-1.953,0-3.696.439-5.229,1.315-1.534.877-2.749,2.132-3.646,3.765-.896,1.634-1.345,3.586-1.345,5.856v.538c0,2.271.448,4.224,1.345,5.856.896,1.634,2.111,2.89,3.646,3.766,1.533.876,3.276,1.314,5.229,1.314,2.907,0,5.129-.757,6.663-2.271,1.533-1.514,2.48-3.386,2.839-5.617l4.661,1.016c-.438,1.913-1.235,3.726-2.391,5.438-1.156,1.714-2.719,3.088-4.691,4.124-1.972,1.035-4.353,1.554-7.142,1.554Z"/>
    <path class="cls-2" d="M512.758,163.056v-41.833h4.722v17.271h.836c.398-.875,1.006-1.703,1.823-2.479.816-.777,1.872-1.424,3.167-1.942,1.295-.518,2.938-.777,4.931-.777,2.19,0,4.153.469,5.887,1.405s3.117,2.291,4.153,4.063c1.035,1.773,1.554,3.974,1.554,6.604v17.689h-4.721v-17.331c0-2.907-.728-5.02-2.182-6.335-1.455-1.314-3.417-1.972-5.887-1.972-2.829,0-5.13.917-6.902,2.749-1.773,1.833-2.659,4.562-2.659,8.188v14.701h-4.722Z"/>
    <path class="cls-2" d="M551.782,129.29c-1.036,0-1.903-.338-2.6-1.016-.697-.677-1.046-1.533-1.046-2.569,0-1.076.349-1.952,1.046-2.63.696-.677,1.563-1.016,2.6-1.016s1.892.339,2.57,1.016c.677.678,1.016,1.554,1.016,2.63,0,1.036-.339,1.893-1.016,2.569-.679.678-1.534,1.016-2.57,1.016ZM549.392,163.056v-29.224h4.722v29.224h-4.722Z"/>
    <path class="cls-2" d="M564.032,163.056v-29.224h4.602v4.96h.837c.637-1.394,1.723-2.659,3.257-3.795,1.533-1.135,3.795-1.703,6.783-1.703,2.19,0,4.153.459,5.887,1.375,1.733.917,3.117,2.271,4.153,4.063,1.035,1.793,1.554,4.004,1.554,6.634v17.689h-4.721v-17.331c0-2.907-.728-5.02-2.182-6.335-1.455-1.314-3.417-1.972-5.887-1.972-2.829,0-5.13.917-6.902,2.749-1.773,1.833-2.659,4.562-2.659,8.188v14.701h-4.722Z"/>
    <path class="cls-2" d="M599.232,148.594v-.837c0-3.067.617-5.697,1.853-7.889,1.234-2.19,2.907-3.885,5.02-5.08,2.111-1.195,4.423-1.793,6.933-1.793,3.067,0,5.428.589,7.082,1.764,1.652,1.176,2.878,2.479,3.675,3.914h.837v-4.841h4.482v36.036c0,1.594-.439,2.849-1.315,3.766-.877.916-2.151,1.374-3.824,1.374h-19.841v-4.184h18.586c1.195,0,1.792-.597,1.792-1.792v-11.116h-.836c-.479.877-1.156,1.733-2.032,2.57-.877.836-2.013,1.523-3.406,2.062-1.396.538-3.128.807-5.199.807-2.51,0-4.821-.598-6.933-1.793-2.112-1.195-3.785-2.898-5.02-5.109-1.235-2.211-1.853-4.831-1.853-7.858ZM614.292,159.171c3.027,0,5.487-.956,7.381-2.868,1.892-1.912,2.838-4.542,2.838-7.889v-.479c0-3.386-.946-6.025-2.838-7.918-1.894-1.892-4.354-2.839-7.381-2.839-2.988,0-5.448.947-7.381,2.839-1.933,1.893-2.898,4.532-2.898,7.918v.479c0,3.347.966,5.977,2.898,7.889s4.393,2.868,7.381,2.868Z"/>
    <path class="cls-2" d="M669.391,163.893c-4.98,0-8.954-1.444-11.922-4.333-2.969-2.888-4.452-7.102-4.452-12.64v-9.562c0-5.537,1.483-9.751,4.452-12.64,2.968-2.889,6.941-4.333,11.922-4.333,5.021,0,9.015,1.444,11.982,4.333s4.452,7.103,4.452,12.64v9.562c0,5.538-1.484,9.752-4.452,12.64-2.968,2.889-6.962,4.333-11.982,4.333ZM669.391,159.41c3.625,0,6.435-1.085,8.427-3.257,1.992-2.171,2.988-5.189,2.988-9.054v-9.921c0-3.864-.996-6.882-2.988-9.054-1.992-2.171-4.802-3.257-8.427-3.257-3.585,0-6.374,1.086-8.366,3.257-1.992,2.172-2.988,5.189-2.988,9.054v9.921c0,3.864.996,6.883,2.988,9.054,1.992,2.172,4.781,3.257,8.366,3.257Z"/>
    <path class="cls-2" d="M705.547,163.594c-2.112,0-4.055-.459-5.827-1.375s-3.167-2.28-4.183-4.094c-1.017-1.812-1.524-4.013-1.524-6.604v-17.689h4.722v17.331c0,2.909.726,5.02,2.181,6.335,1.454,1.314,3.416,1.972,5.887,1.972,2.788,0,5.08-.916,6.873-2.749,1.792-1.832,2.688-4.562,2.688-8.188v-14.701h4.722v29.224h-4.602v-4.96h-.837c-.638,1.395-1.733,2.659-3.287,3.795-1.554,1.135-3.824,1.703-6.812,1.703Z"/>
    <path class="cls-2" d="M741.703,163.056c-1.674,0-2.959-.458-3.855-1.375-.896-.916-1.345-2.171-1.345-3.765v-19.96h-8.784v-4.124h8.784v-10.398h4.722v10.398h9.562v4.124h-9.562v19.243c0,1.195.577,1.793,1.733,1.793h6.514v4.063h-7.769Z"/>
  </g>
  <g>
    <path class="cls-3" d="M73.516,25.49c-.216,12.64-19.018,12.638-19.232,0,.216-12.64,19.018-12.638,19.232,0Z"/>
    <line class="cls-3" x1="63.9" y1="32.833" x2="63.9" y2="167.056"/>
    <line class="cls-3" x1="63.9" y1="42.91" x2="82.814" y2="61.824"/>
    <path class="cls-3" d="M98.773,68.146c-.216,12.64-19.018,12.638-19.232,0,.216-12.64,19.018-12.638,19.232,0Z"/>
    <line class="cls-3" x1="64.703" y1="76.206" x2="94.107" y2="105.61"/>
    <path class="cls-3" d="M110.066,111.933c-.216,12.64-19.018,12.638-19.232,0,.216-12.64,19.018-12.638,19.232,0Z"/>
    <line class="cls-3" x1="62.974" y1="106.255" x2="102.87" y2="146.151"/>
    <path class="cls-3" d="M118.694,152.339c-.216,12.64-19.018,12.638-19.232,0,.216-12.64,19.018-12.638,19.232,0Z"/>
    <line class="cls-3" x1="63.997" y1="42.999" x2="45.083" y2="61.913"/>
    <path class="cls-3" d="M29.124,68.236c.216,12.64,19.018,12.638,19.232,0-.216-12.64-19.018-12.638-19.232,0Z"/>
    <line class="cls-3" x1="63.194" y1="76.295" x2="33.79" y2="105.699"/>
    <path class="cls-3" d="M17.831,112.022c.216,12.64,19.018,12.638,19.232,0-.216-12.64-19.018-12.638-19.232,0Z"/>
    <line class="cls-3" x1="64.923" y1="106.344" x2="25.027" y2="146.24"/>
    <path class="cls-3" d="M9.203,152.428c.216,12.64,19.018,12.638,19.232,0-.216-12.64-19.018-12.638-19.232,0Z"/>
  </g>
</svg>