<?xml version="1.0" encoding="UTF-8"?>
<svg id="Layer_2" data-name="Layer 2" xmlns="http://www.w3.org/2000/svg" viewBox="0 0 799.2 144">
  <defs>
    <style>
      .cls-1 {
        fill: none;
        stroke: #1e66b1;
        stroke-miterlimit: 10;
        stroke-width: 4px;
      }

      .cls-2 {
        fill: #000;
        stroke-width: 0px;
      }
    </style>
  </defs>
  <g id="Icon">
    <line class="cls-1" x1="64.7158" y1="39.4741" x2="64.7158" y2="115.0356"/>
    <path class="cls-2" d="M64.543.4218L3.0701,35.9132v70.9828l61.4729,35.4915,61.473-35.4915V35.9132L64.543.4218ZM118.643,103.3222l-54.3956,31.4053-54.3956-31.4053v-62.8107l54.3956-31.4053,54.3956,31.4053v62.8107Z"/>
    <path class="cls-2" d="M69.1039,23.9332h-9.1216l-4.5608,7.8995,4.5608,7.8995h9.1216l4.5608-7.8995-4.5608-7.8995ZM67.0466,36.1691h-5.0071l-2.5035-4.3363,2.5035-4.3363h5.0071l2.5036,4.3363-2.5036,4.3363Z"/>
    <rect class="cls-2" x="62.2289" y="38.1562" width="4.9739" height="76.8795"/>
    <g>
      <path class="cls-2" d="M42.3664,93.4507h-9.1216l-4.5608,7.8995,4.5608,7.8995h9.1216l4.5608-7.8995-4.5608-7.8995ZM40.3091,105.6866h-5.0071l-2.5035-4.3363,2.5035-4.3363h5.0071l2.5036,4.3363-2.5036,4.3363Z"/>
      <path class="cls-2" d="M49.1927,69.2044h-9.1216l-4.5608,7.8995,4.5608,7.8995h9.1216l4.5608-7.8995-4.5608-7.8995ZM47.1354,81.4402h-5.0071l-2.5035-4.3363,2.5035-4.3363h5.0071l2.5036,4.3363-2.5036,4.3363Z"/>
      <path class="cls-2" d="M54.5281,45.4435h-9.1216l-4.5608,7.8995,4.5608,7.8995h9.1216l4.5608-7.8995-4.5608-7.8995ZM52.4709,57.6794h-5.0071l-2.5035-4.3363,2.5035-4.3363h5.0071l2.5036,4.3363-2.5036,4.3363Z"/>
      <rect class="cls-2" x="57.7402" y="41.5943" width="4.9739" height="11.7223" transform="translate(49.2432 123.3415) rotate(-120)"/>
      <rect class="cls-2" x="55.1726" y="61.6265" width="4.9739" height="16.0996" transform="translate(26.1479 154.449) rotate(-120)"/>
      <rect class="cls-2" x="51.8163" y="79.7252" width="4.9739" height="24.2412" transform="translate(1.9141 184.7967) rotate(-120)"/>
    </g>
    <g>
      <path class="cls-2" d="M82.5113,101.3486l4.5608,7.8995h9.1216s4.5608-7.8995,4.5608-7.8995l-4.5608-7.8995h-9.1216s-4.5608,7.8995-4.5608,7.8995ZM86.6257,101.3486l2.5036-4.3363h5.0071s2.5035,4.3363,2.5035,4.3363l-2.5035,4.3363h-5.0071s-2.5036-4.3363-2.5036-4.3363Z"/>
      <path class="cls-2" d="M75.685,77.1023l4.5608,7.8995h9.1216s4.5608-7.8995,4.5608-7.8995l-4.5608-7.8995h-9.1216s-4.5608,7.8995-4.5608,7.8995ZM79.7994,77.1023l2.5036-4.3363h5.0071s2.5035,4.3363,2.5035,4.3363l-2.5035,4.3363h-5.0071s-2.5036-4.3363-2.5036-4.3363Z"/>
      <path class="cls-2" d="M70.3495,53.3414l4.5608,7.8995h9.1216s4.5608-7.8995,4.5608-7.8995l-4.5608-7.8995h-9.1216s-4.5608,7.8995-4.5608,7.8995ZM74.464,53.3414l2.5036-4.3363h5.0071s2.5035,4.3363,2.5035,4.3363l-2.5035,4.3363h-5.0071s-2.5036-4.3363-2.5036-4.3363Z"/>
      <rect class="cls-2" x="66.7243" y="41.5927" width="4.9739" height="11.7223" transform="translate(-6.4906 83.6656) rotate(-60)"/>
      <rect class="cls-2" x="69.2919" y="61.6248" width="4.9739" height="16.0996" transform="translate(-24.4505 96.9996) rotate(-60)"/>
      <rect class="cls-2" x="72.6482" y="79.7235" width="4.9739" height="24.2412" transform="translate(-41.9718 110.991) rotate(-60)"/>
    </g>
  </g>
  <g>
    <path class="cls-2" d="M150.5463,107.1367l-7.251-51.3779h12.9482l4.5576,42.5732h1.8643l6.6289-42.5732h20.9248l6.6289,42.5732h1.8643l4.5586-42.5732h12.9473l-7.251,51.3779h-21.6484l-6.6299-42.5732h-1.8643l-6.6299,42.5732h-21.6484Z"/>
    <path class="cls-2" d="M251.0229,108.5869c-5.1113,0-9.6172-1.0879-13.5176-3.2627-3.9023-2.1758-6.9404-5.248-9.1162-9.2197-2.1748-3.9697-3.2627-8.6494-3.2627-14.0352v-1.2432c0-5.3867,1.0703-10.064,3.2109-14.0356,2.1396-3.9702,5.1436-7.0435,9.0127-9.2188,3.8662-2.1753,8.3545-3.2632,13.4658-3.2632,5.04,0,9.4258,1.1235,13.1553,3.3667,3.7285,2.2446,6.6289,5.3525,8.7012,9.3228,2.0713,3.9717,3.1074,8.5811,3.1074,13.8281v4.4541h-37.3945c.1377,3.5215,1.4502,6.3877,3.9365,8.5977,2.4863,2.2109,5.5234,3.3145,9.1152,3.3145,3.6592,0,6.3525-.793,8.0801-2.3828,1.7246-1.5869,3.0371-3.3486,3.9355-5.2822l10.6689,5.5938c-.9678,1.7959-2.3662,3.7461-4.1943,5.8525-1.8311,2.1064-4.2646,3.9014-7.3027,5.3857-3.04,1.4844-6.9062,2.2275-11.6016,2.2275ZM238.4887,75.543h24.0322c-.2773-2.9678-1.4688-5.3501-3.5742-7.147-2.1074-1.7949-4.8525-2.6929-8.2344-2.6929-3.5225,0-6.3193.8979-8.3906,2.6929-2.0713,1.7969-3.3506,4.1792-3.833,7.147Z"/>
    <path class="cls-2" d="M318.2484,108.5869c-4.627,0-8.1836-.7949-10.6689-2.3828-2.4863-1.5879-4.3174-3.3486-5.4902-5.2822h-1.8643v6.2148h-12.8447V34.6279h13.0518v27.0352h1.8643c.7588-1.2427,1.7773-2.4165,3.0557-3.522,1.2773-1.1035,2.9688-2.0195,5.0762-2.7446,2.1055-.7251,4.7129-1.0879,7.8203-1.0879,4.1436,0,7.9756,1.02,11.498,3.0557,3.5215,2.0381,6.3525,5.0239,8.4932,8.9604,2.1396,3.936,3.2119,8.7007,3.2119,14.2944v1.6572c0,5.5938-1.0723,10.3584-3.2119,14.2949-2.1406,3.9355-4.9717,6.9238-8.4932,8.96-3.5225,2.0361-7.3545,3.0557-11.498,3.0557ZM314.3119,97.1924c4.0039,0,7.3545-1.2949,10.0479-3.8848,2.6934-2.5889,4.04-6.3701,4.04-11.3418v-1.0361c0-4.9717-1.3311-8.7524-3.9883-11.3423-2.6592-2.5894-6.0254-3.8843-10.0996-3.8843-4.0059,0-7.3545,1.2949-10.0479,3.8843-2.6924,2.5898-4.0391,6.3706-4.0391,11.3423v1.0361c0,4.9717,1.3467,8.7529,4.0391,11.3418,2.6934,2.5898,6.042,3.8848,10.0479,3.8848Z"/>
    <path class="cls-2" d="M376.8754,108.5869c-5.1113,0-9.6172-1.0879-13.5176-3.2627-3.9023-2.1758-6.9404-5.248-9.1162-9.2197-2.1748-3.9697-3.2627-8.6494-3.2627-14.0352v-1.2432c0-5.3867,1.0703-10.064,3.2109-14.0356,2.1396-3.9702,5.1436-7.0435,9.0127-9.2188,3.8662-2.1753,8.3545-3.2632,13.4658-3.2632,5.04,0,9.4258,1.1235,13.1553,3.3667,3.7285,2.2446,6.6289,5.3525,8.7012,9.3228,2.0713,3.9717,3.1074,8.5811,3.1074,13.8281v4.4541h-37.3945c.1377,3.5215,1.4502,6.3877,3.9365,8.5977,2.4863,2.2109,5.5234,3.3145,9.1152,3.3145,3.6592,0,6.3525-.793,8.0801-2.3828,1.7246-1.5869,3.0371-3.3486,3.9355-5.2822l10.6689,5.5938c-.9678,1.7959-2.3662,3.7461-4.1943,5.8525-1.8311,2.1064-4.2646,3.9014-7.3027,5.3857-3.04,1.4844-6.9062,2.2275-11.6016,2.2275ZM364.3412,75.543h24.0322c-.2773-2.9678-1.4688-5.3501-3.5742-7.147-2.1074-1.7949-4.8525-2.6929-8.2344-2.6929-3.5225,0-6.3193.8979-8.3906,2.6929-2.0713,1.7969-3.3506,4.1792-3.833,7.147Z"/>
    <path class="cls-2" d="M437.3676,108.5869c-4.9717,0-9.4775-1.0361-13.5176-3.1074-4.04-2.0723-7.2344-5.0762-9.5811-9.0117-2.3486-3.9365-3.5225-8.7012-3.5225-14.2949v-1.4502c0-5.5938,1.1738-10.3584,3.5225-14.2944,2.3467-3.9365,5.541-6.9404,9.5811-9.0122,4.04-2.0713,8.5459-3.1074,13.5176-3.1074,4.9023,0,9.1152.8643,12.6377,2.5898,3.5215,1.7271,6.3701,4.0913,8.5459,7.0952,2.1748,3.0044,3.6074,6.4062,4.2988,10.2026l-12.6377,2.6934c-.2764-2.0713-.8984-3.9355-1.8643-5.5933-.9678-1.6572-2.3311-2.9683-4.0918-3.936-1.7607-.9663-3.9541-1.4502-6.5771-1.4502-2.626,0-4.9902.5698-7.0957,1.709-2.1074,1.1396-3.7646,2.8325-4.9727,5.0757-1.209,2.2446-1.8125,4.9897-1.8125,8.2349v1.0361c0,3.2461.6035,5.9912,1.8125,8.2344,1.208,2.2451,2.8652,3.9365,4.9727,5.0762,2.1055,1.1387,4.4697,1.709,7.0957,1.709,3.9355,0,6.9219-1.0186,8.96-3.0557,2.0361-2.0361,3.3301-4.7129,3.8838-8.0283l12.6377,3.0039c-.8984,3.6611-2.4346,6.9922-4.6094,9.9961-2.1758,3.0039-5.0244,5.3701-8.5459,7.0957-3.5225,1.7256-7.7354,2.5898-12.6377,2.5898Z"/>
    <path class="cls-2" d="M473.933,107.1367V34.6279h13.0518v40.0869h1.8643l16.9883-18.9561h16.9873l-23.7207,24.8604,24.5498,26.5176h-16.7812l-18.0234-20.4062h-1.8643v20.4062h-13.0518Z"/>
    <path class="cls-2" d="M555.765,108.5869c-5.1113,0-9.6172-1.0879-13.5176-3.2627-3.9023-2.1758-6.9404-5.248-9.1162-9.2197-2.1748-3.9697-3.2627-8.6494-3.2627-14.0352v-1.2432c0-5.3867,1.0703-10.064,3.2109-14.0356,2.1396-3.9702,5.1436-7.0435,9.0127-9.2188,3.8662-2.1753,8.3545-3.2632,13.4658-3.2632,5.04,0,9.4258,1.1235,13.1553,3.3667,3.7285,2.2446,6.6289,5.3525,8.7012,9.3228,2.0713,3.9717,3.1074,8.5811,3.1074,13.8281v4.4541h-37.3945c.1377,3.5215,1.4502,6.3877,3.9365,8.5977,2.4863,2.2109,5.5234,3.3145,9.1152,3.3145,3.6592,0,6.3525-.793,8.0801-2.3828,1.7246-1.5869,3.0371-3.3486,3.9355-5.2822l10.6689,5.5938c-.9678,1.7959-2.3662,3.7461-4.1943,5.8525-1.8311,2.1064-4.2646,3.9014-7.3027,5.3857-3.04,1.4844-6.9062,2.2275-11.6016,2.2275ZM543.2309,75.543h24.0322c-.2773-2.9678-1.4688-5.3501-3.5742-7.147-2.1074-1.7949-4.8525-2.6929-8.2344-2.6929-3.5225,0-6.3193.8979-8.3906,2.6929-2.0713,1.7969-3.3506,4.1792-3.833,7.147Z"/>
    <path class="cls-2" d="M600.3051,108.5869c-2.7627,0-5.0928-.916-6.9912-2.7451-1.9004-1.8291-2.8486-4.1953-2.8486-7.0957s.9482-5.2646,2.8486-7.0957c1.8984-1.8291,4.2285-2.7451,6.9912-2.7451,2.8311,0,5.1797.916,7.0439,2.7451,1.8652,1.8311,2.7969,4.1953,2.7969,7.0957s-.9316,5.2666-2.7969,7.0957c-1.8643,1.8291-4.2129,2.7451-7.0439,2.7451Z"/>
    <path class="cls-2" d="M643.7055,108.5869c-4.0752,0-7.8906-1.0195-11.4463-3.0557-3.5576-2.0361-6.4062-5.0244-8.5459-8.96-2.1406-3.9365-3.2109-8.7012-3.2109-14.2949v-1.6572c0-5.5938,1.0703-10.3584,3.2109-14.2944,2.1396-3.9365,4.9727-6.9224,8.4941-8.9604,3.5225-2.0356,7.3545-3.0557,11.498-3.0557,3.1074,0,5.7129.3628,7.8203,1.0879,2.1064.7251,3.8154,1.6411,5.1279,2.7446,1.3105,1.1055,2.3125,2.2793,3.0039,3.522h1.8643v-27.0352h13.0518v72.5088h-12.8447v-6.2148h-1.8643c-1.1748,1.9336-2.9883,3.6943-5.4385,5.2822-2.4521,1.5879-6.0254,2.3828-10.7207,2.3828ZM647.642,97.1924c4.0039,0,7.3545-1.2949,10.0469-3.8848,2.6934-2.5889,4.04-6.3701,4.04-11.3418v-1.0361c0-4.9717-1.3301-8.7524-3.9873-11.3423-2.6602-2.5894-6.0264-3.8843-10.0996-3.8843-4.0059,0-7.3545,1.2949-10.0479,3.8843-2.6934,2.5898-4.04,6.3706-4.04,11.3423v1.0361c0,4.9717,1.3467,8.7529,4.04,11.3418,2.6934,2.5898,6.042,3.8848,10.0479,3.8848Z"/>
    <path class="cls-2" d="M712.4848,108.5869c-5.1113,0-9.6172-1.0879-13.5176-3.2627-3.9023-2.1758-6.9404-5.248-9.1162-9.2197-2.1748-3.9697-3.2627-8.6494-3.2627-14.0352v-1.2432c0-5.3867,1.0703-10.064,3.2109-14.0356,2.1396-3.9702,5.1436-7.0435,9.0127-9.2188,3.8662-2.1753,8.3545-3.2632,13.4658-3.2632,5.04,0,9.4258,1.1235,13.1553,3.3667,3.7285,2.2446,6.6289,5.3525,8.7012,9.3228,2.0713,3.9717,3.1074,8.5811,3.1074,13.8281v4.4541h-37.3945c.1377,3.5215,1.4502,6.3877,3.9365,8.5977,2.4863,2.2109,5.5234,3.3145,9.1152,3.3145,3.6592,0,6.3525-.793,8.0801-2.3828,1.7246-1.5869,3.0371-3.3486,3.9355-5.2822l10.6689,5.5938c-.9678,1.7959-2.3662,3.7461-4.1943,5.8525-1.8311,2.1064-4.2646,3.9014-7.3027,5.3857-3.04,1.4844-6.9062,2.2275-11.6016,2.2275ZM699.9506,75.543h24.0322c-.2773-2.9678-1.4688-5.3501-3.5742-7.147-2.1074-1.7949-4.8525-2.6929-8.2344-2.6929-3.5225,0-6.3193.8979-8.3906,2.6929-2.0713,1.7969-3.3506,4.1792-3.833,7.147Z"/>
    <path class="cls-2" d="M759.6146,107.1367l-16.3662-51.3779h13.8809l11.9121,41.8477h1.8643l11.9121-41.8477h13.8799l-16.3662,51.3779h-20.7168Z"/>
  </g>
</svg>
